<svg width="24" height="24" viewBox="0 0 24 24" fill="none" xmlns="http://www.w3.org/2000/svg">
<mask id="mask0_32_306" style="mask-type:luminance" maskUnits="userSpaceOnUse" x="0" y="0" width="24" height="24">
<path d="M24 0.279785H0V24H24V0.279785Z" fill="white"/>
</mask>
<g mask="url(#mask0_32_306)">
<path d="M22 13.1281V9.17474C22 4.23303 20 2.25635 15 2.25635H9C4 2.25635 2 4.23303 2 9.17474V15.1048C2 20.0465 4 22.0232 9 22.0232H13" stroke="black" stroke-width="1.5" stroke-linecap="round" stroke-linejoin="round"/>
<path d="M7.32996 14.6007L9.70996 11.5467C10.05 11.1118 10.68 11.0328 11.12 11.3688L12.95 12.792C13.39 13.1281 14.02 13.049 14.36 12.624L16.67 9.67871" stroke="black" stroke-width="1.5" stroke-linecap="round" stroke-linejoin="round"/>
<path d="M19.48 15.9149L19.76 16.4782C19.9 16.7549 20.25 17.012 20.56 17.0713L20.94 17.1305C22.08 17.3183 22.35 18.1485 21.53 18.9688L21.18 19.3147C20.95 19.5519 20.82 20.0065 20.89 20.3228L20.94 20.5305C21.25 21.8944 20.52 22.4181 19.32 21.7065L19.06 21.5582C18.75 21.3803 18.25 21.3803 17.94 21.5582L17.68 21.7065C16.47 22.428 15.74 21.8944 16.06 20.5305L16.1099 20.3228C16.1799 20.0065 16.05 19.5519 15.82 19.3147L15.47 18.9688C14.65 18.1485 14.92 17.3183 16.06 17.1305L16.44 17.0713C16.74 17.0218 17.1 16.7549 17.24 16.4782L17.52 15.9149C18.06 14.8376 18.94 14.8376 19.48 15.9149Z" stroke="black" stroke-width="1.5" stroke-linecap="round" stroke-linejoin="round"/>
</g>
</svg>
