<svg width="24" height="24" viewBox="0 0 24 24" fill="none" xmlns="http://www.w3.org/2000/svg">
<mask id="mask0_32_216" style="mask-type:luminance" maskUnits="userSpaceOnUse" x="0" y="0" width="24" height="24">
<path d="M24 0.279785H0V24H24V0.279785Z" fill="white"/>
</mask>
<g mask="url(#mask0_32_216)">
<path d="M9.25 1.53516C6.63 1.53516 4.5 3.64033 4.5 6.22978C4.5 8.81924 6.51 10.8256 9.13 10.9145C9.21 10.9046 9.29 10.9046 9.35 10.9145H9.42C11.98 10.8256 13.99 8.76982 14 6.22978C14 3.64033 11.87 1.53516 9.25 1.53516Z" fill="black"/>
<path d="M20.24 6.81305C20.4 8.73044 19.02 10.4106 17.11 10.6379H17.06C17 10.6379 16.94 10.6379 16.89 10.6577C15.92 10.7071 15.03 10.4007 14.36 9.83738C15.39 8.92811 15.98 7.56419 15.86 6.08168C15.79 5.28112 15.51 4.54975 15.09 3.92709C15.47 3.73931 15.91 3.62071 16.36 3.58117C18.32 3.41316 20.07 4.85613 20.24 6.81305Z" fill="black"/>
<path d="M22.24 15.9548C22.16 16.9135 21.54 17.7437 20.5 18.3071C19.5 18.8507 18.24 19.1076 16.99 19.078C17.71 18.4356 18.13 17.635 18.21 16.785C18.31 15.5595 17.72 14.3834 16.54 13.4444C15.87 12.9206 15.09 12.5055 14.24 12.1991C16.45 11.5666 19.23 11.9916 20.94 13.3555C21.86 14.0869 22.33 15.006 22.24 15.9548Z" fill="black"/>
<path d="M14.33 13.5433C11.54 11.705 6.99002 11.705 4.18002 13.5433C2.91002 14.3834 2.21002 15.52 2.21002 16.7356C2.21002 17.1211 2.29002 17.4868 2.42002 17.8525L2.68002 17.7833C3.19002 17.635 3.56002 17.2693 3.70002 16.7752L3.96002 15.8362L4.02002 15.6682C4.21002 15.1741 4.69002 14.8479 5.24002 14.8479C5.80002 14.8479 6.25002 15.1839 6.44002 15.6781L6.75002 16.7851C6.88002 17.2792 7.27002 17.6548 7.76002 17.7932L8.92002 18.1193C9.42002 18.3269 9.72002 18.7914 9.72002 19.335C9.72002 19.9108 9.3212 20.3989 8.77002 20.5704L7.78002 20.8373C7.59002 20.8867 7.42002 20.9855 7.27002 21.0942C7.92002 21.2128 8.58002 21.3018 9.25002 21.3018C11.09 21.3018 12.93 20.8373 14.33 19.9082C15.59 19.0681 16.29 17.9414 16.29 16.7159C16.28 15.5002 15.59 14.3735 14.33 13.5433Z" fill="black"/>
<path d="M8.74 19.3053C8.74 19.3744 8.7 19.5326 8.51 19.5919L7.53 19.8587C6.68 20.086 6.04 20.7186 5.81 21.5587L5.55 22.5075C5.49 22.7249 5.32 22.7447 5.24 22.7447C5.16 22.7447 4.99 22.7249 4.93 22.5075L4.67 21.5488C4.44 20.7186 3.79 20.086 2.95 19.8587L1.98 19.6018C1.77 19.5425 1.75 19.3646 1.75 19.2954C1.75 19.2163 1.77 19.0384 1.98 18.9791L2.96 18.7221C3.8 18.4849 4.44 17.8524 4.67 17.0222L4.95 16.0141C5.02 15.8461 5.18 15.8164 5.24 15.8164C5.3 15.8164 5.47 15.8362 5.53 15.9943L5.81 17.0123C6.04 17.8425 6.69 18.475 7.53 18.7122L8.53 18.989C8.73 19.0681 8.74 19.246 8.74 19.3053Z" fill="black"/>
</g>
</svg>
